<svg xmlns="http://www.w3.org/2000/svg" viewBox="0 0 300 300">
  <defs>
    <filter id="wc" x="-30%" y="-30%" width="160%" height="160%">
      <feTurbulence type="fractalNoise" baseFrequency="0.02" numOctaves="4" seed="7" result="n"/>
      <feDisplacementMap in="SourceGraphic" in2="n" scale="5"/>
      <feGaussianBlur stdDeviation="0.5"/>
    </filter>
  </defs>
  <g transform="translate(150,150) scale(1.5)">
    <path d="M-30 42 Q-30 18 0 18 Q30 18 30 42 Z" fill="#F6F1E7" stroke="#D8CFBE" stroke-width="2" filter="url(#wc)"/>
    <path d="M-8 18 L0 28 L8 18" fill="none" stroke="#D8CFBE" stroke-width="1.6"/>
    <path d="M18 22 L14 30 Q13 40 22 40 Q31 40 30 30 L26 22 Z" fill="#7CA85C" stroke="#5E8043" stroke-width="1.6" filter="url(#wc)"/>
    <path d="M14 30 Q22 34 30 30" fill="none" stroke="#5E8043" stroke-width="1.2"/>
    <path d="M18 22 L26 22" stroke="#8E8880" stroke-width="2"/>
    <circle cx="-2" cy="0" r="21" fill="#E9BD97" stroke="#CFA47A" stroke-width="1.8" filter="url(#wc)"/>
    <path d="M-23 -6 Q-22 -22 -2 -24 Q18 -22 19 -6 Q9 -16 -2 -14 Q-13 -16 -23 -6 Z" fill="#7A7068" filter="url(#wc)"/>
    <circle cx="-9" cy="-2" r="6" fill="#DCEAF0" stroke="#8E8880" stroke-width="1.6" opacity="0.85"/><circle cx="7" cy="-2" r="6" fill="#DCEAF0" stroke="#8E8880" stroke-width="1.6" opacity="0.85"/>
    <path d="M-3 -2 L1 -2" stroke="#8E8880" stroke-width="1.6"/>
    <path d="M-8 9 Q-1 13 6 9" fill="none" stroke="#4A3B2E" stroke-width="1.8" stroke-linecap="round"/>
  </g>
</svg>
