<svg xmlns="http://www.w3.org/2000/svg" viewBox="0 0 300 300"><defs><filter id="wc" x="-30%" y="-30%" width="160%" height="160%"><feTurbulence type="fractalNoise" baseFrequency="0.02" numOctaves="4" seed="7" result="n"/><feDisplacementMap in="SourceGraphic" in2="n" scale="6"/><feGaussianBlur stdDeviation="0.5"/></filter></defs><g transform="translate(150,150)" filter="url(#wc)"><g fill="#CDD7DC"><circle cx="-56" cy="-50" r="4"/><circle cx="50" cy="-40" r="4"/><circle cx="-40" cy="20" r="3"/><circle cx="58" cy="30" r="3"/><circle cx="20" cy="-62" r="3"/></g><ellipse cx="0" cy="66" rx="80" ry="14" fill="#E7EDEF"/><circle cx="0" cy="36" r="34" fill="#F6F8FA" stroke="#CDD7DC" stroke-width="2"/><circle cx="0" cy="-10" r="26" fill="#F6F8FA" stroke="#CDD7DC" stroke-width="2"/><circle cx="0" cy="-48" r="20" fill="#F6F8FA" stroke="#CDD7DC" stroke-width="2"/><path d="M-22 -34 Q0 -26 22 -34 L22 -26 Q0 -18 -22 -26 Z" fill="#C0483B"/><path d="M14 -28 L20 -8 L10 -8 Z" fill="#C0483B"/><circle cx="-7" cy="-52" r="3" fill="#2A2A2E"/><circle cx="7" cy="-52" r="3" fill="#2A2A2E"/><path d="M-2 -46 L14 -42 L-2 -40 Z" fill="#E78A3E"/><g fill="#2A2A2E"><circle cx="0" cy="-8" r="2.5"/><circle cx="0" cy="2" r="2.5"/><circle cx="0" cy="12" r="2.5"/></g><g stroke="#6E4A2C" stroke-width="3" stroke-linecap="round"><path d="M-26 -6 L-50 -14"/><path d="M26 -6 L50 -14"/></g></g></svg>
