<svg xmlns="http://www.w3.org/2000/svg" viewBox="0 0 300 300"><defs><filter id="wc" x="-30%" y="-30%" width="160%" height="160%"><feTurbulence type="fractalNoise" baseFrequency="0.02" numOctaves="4" seed="7" result="n"/><feDisplacementMap in="SourceGraphic" in2="n" scale="6"/><feGaussianBlur stdDeviation="0.5"/></filter></defs><g transform="translate(150,150)" filter="url(#wc)"><path d="M-10 40 L-30 96 L6 60 Z" fill="#5E9E6A" stroke="#43784C" stroke-width="2"/><path d="M-18 -30 Q30 -40 34 10 Q32 50 -4 54 Q-34 50 -34 0 Q-34 -24 -18 -30 Z" fill="#5E9E6A" stroke="#43784C" stroke-width="3"/><path d="M6 -8 Q34 0 26 40 Q10 30 2 8 Z" fill="#4E8C5A" stroke="#43784C" stroke-width="2"/><path d="M-30 6 Q-20 44 -4 46 Q-18 30 -18 2 Z" fill="#F2C14E" opacity="0.8"/><circle cx="-20" cy="-34" r="22" fill="#5E9E6A" stroke="#43784C" stroke-width="3"/><path d="M-40 -34 Q-56 -32 -52 -20 Q-44 -22 -38 -26 Z" fill="#D9603F" stroke="#B5432A" stroke-width="2"/><circle cx="-24" cy="-38" r="4" fill="#2A2A2E"/><circle cx="-30" cy="-26" r="5" fill="#D9603F" opacity="0.6"/></g></svg>
