<svg xmlns="http://www.w3.org/2000/svg" viewBox="0 0 300 300"><defs><filter id="wc" x="-30%" y="-30%" width="160%" height="160%"><feTurbulence type="fractalNoise" baseFrequency="0.02" numOctaves="4" seed="7" result="n"/><feDisplacementMap in="SourceGraphic" in2="n" scale="6"/><feGaussianBlur stdDeviation="0.5"/></filter></defs><g transform="translate(150,150)" filter="url(#wc)"><path d="M-110 0 Q-60 -42 30 -30 Q80 -24 104 6 Q80 18 30 18 Q-50 30 -110 0 Z" fill="#8FA3AE" stroke="#6E828C" stroke-width="3"/><path d="M-80 14 Q-20 30 60 16 Q20 24 -80 14 Z" fill="#E7EDEF" opacity="0.8"/><path d="M-6 -30 L14 -70 L30 -28 Z" fill="#7E929C" stroke="#6E828C" stroke-width="2"/><path d="M-14 16 L-2 46 L22 18 Z" fill="#7E929C" stroke="#6E828C" stroke-width="2"/><path d="M-110 0 L-140 -28 L-126 0 L-140 28 Z" fill="#8FA3AE" stroke="#6E828C" stroke-width="2"/><circle cx="74" cy="-4" r="4" fill="#2A2A2E"/><g stroke="#6E828C" stroke-width="2"><path d="M54 -10 L50 6"/><path d="M46 -10 L42 6"/></g><path d="M104 6 Q92 12 80 10" fill="none" stroke="#5A6C74" stroke-width="2"/></g></svg>
