<svg xmlns="http://www.w3.org/2000/svg" viewBox="0 0 300 300">
  <defs>
    <filter id="wc" x="-30%" y="-30%" width="160%" height="160%">
      <feTurbulence type="fractalNoise" baseFrequency="0.02" numOctaves="4" seed="7" result="n"/>
      <feDisplacementMap in="SourceGraphic" in2="n" scale="6"/>
      <feGaussianBlur stdDeviation="0.5"/>
    </filter>
  </defs>
  <g transform="translate(150,150) scale(1.2)">
    <ellipse cx="-24" cy="6" rx="9" ry="12" fill="#C89B6A" stroke="#A87C4E" stroke-width="2" transform="rotate(20 -24 6)" filter="url(#wc)"/>
    <ellipse cx="24" cy="6" rx="9" ry="12" fill="#C89B6A" stroke="#A87C4E" stroke-width="2" transform="rotate(-20 24 6)" filter="url(#wc)"/>
    <ellipse cx="-13" cy="38" rx="10" ry="8" fill="#C89B6A" stroke="#A87C4E" stroke-width="2" filter="url(#wc)"/>
    <ellipse cx="13" cy="38" rx="10" ry="8" fill="#C89B6A" stroke="#A87C4E" stroke-width="2" filter="url(#wc)"/>
    <ellipse cx="0" cy="18" rx="24" ry="22" fill="#C89B6A" stroke="#A87C4E" stroke-width="2" filter="url(#wc)"/>
    <ellipse cx="0" cy="20" rx="12" ry="13" fill="#E7C79E" opacity="0.7"/>
    <circle cx="-20" cy="-34" r="10" fill="#C89B6A" stroke="#A87C4E" stroke-width="2" filter="url(#wc)"/>
    <circle cx="20" cy="-34" r="10" fill="#C89B6A" stroke="#A87C4E" stroke-width="2" filter="url(#wc)"/>
    <circle cx="-20" cy="-34" r="4.5" fill="#E7C79E"/>
    <circle cx="20" cy="-34" r="4.5" fill="#E7C79E"/>
    <circle cx="0" cy="-20" r="22" fill="#C89B6A" stroke="#A87C4E" stroke-width="2" filter="url(#wc)"/>
    <ellipse cx="0" cy="-12" rx="12" ry="9" fill="#E7C79E" stroke="#CDA877" stroke-width="1.5"/>
    <circle cx="0" cy="-16" r="3" fill="#5E3A1E"/>
    <circle cx="-8" cy="-24" r="2.6" fill="#4A2C16"/><circle cx="8" cy="-24" r="2.6" fill="#4A2C16"/>
  </g>
</svg>
